<?xml version="1.0" encoding="UTF-8" standalone="no"?>
<svg
   width="166.24565mm"
   height="135.23022mm"
   viewBox="0 0 166.24565 135.23022"
   version="1.1"
   id="svg81"
   inkscape:version="1.1-dev (1:1.0+devel+202008011544+7033a03)"
   sodipodi:docname="logo.svg"
   xmlns:inkscape="http://www.inkscape.org/namespaces/inkscape"
   xmlns:sodipodi="http://sodipodi.sourceforge.net/DTD/sodipodi-0.dtd"
   xmlns="http://www.w3.org/2000/svg"
   xmlns:svg="http://www.w3.org/2000/svg">
  <defs
     id="defs77" />
  <sodipodi:namedview
     id="base"
     pagecolor="#ffffff"
     bordercolor="#666666"
     borderopacity="1.0"
     inkscape:pageopacity="0.0"
     inkscape:pageshadow="2"
     inkscape:zoom="1.0123415"
     inkscape:cx="510.69722"
     inkscape:cy="206.94597"
     inkscape:document-units="mm"
     inkscape:current-layer="layer1"
     showgrid="false"
     inkscape:window-width="1920"
     inkscape:window-height="1049"
     inkscape:window-x="0"
     inkscape:window-y="0"
     inkscape:window-maximized="1">
    <sodipodi:guide
       position="52.476238,41.822722"
       orientation="0,793.70079"
       id="guide971" />
    <sodipodi:guide
       position="188.15696,127.81353"
       orientation="1122.5197,0"
       id="guide973" />
    <sodipodi:guide
       position="188.11799,-131.56055"
       orientation="0,-793.70079"
       id="guide975" />
    <sodipodi:guide
       position="83.266324,128.82252"
       orientation="-1122.5197,0"
       id="guide977" />
  </sodipodi:namedview>
  <g
     inkscape:label="Layer 1"
     inkscape:groupmode="layer"
     id="layer1"
     transform="translate(-21.882005,-30.209228)">
    <path
       style="fill:#00a8ff;fill-opacity:1;stroke:#000000;stroke-width:0.208461px;stroke-linecap:butt;stroke-linejoin:miter;stroke-opacity:1"
       d="M 32.843242,63.049173 39.59791,92.501342 75.346223,129.79631 106.69617,155.81065 173.05929,90.980102 177.22614,61.437541 158.21097,41.788529 127.1516,42.453854 105.14833,60.201349 81.416176,45.453981 51.018218,42.581428 37.98051,50.730313 Z"
       id="path96" />
    <path
       style="fill:#ca0000;fill-opacity:1;stroke-width:0.208461"
       d="M 81.779301,144.34073 C 69.134695,132.73644 53.676592,118.55868 47.427972,112.83462 41.179344,107.11056 35.376178,101.75993 34.532054,100.94435 28.273002,94.897012 23.896602,86.841552 22.370469,78.559022 c -0.654599,-3.55262 -0.650612,-10.53021 0.008,-14.109831 2.308463,-12.545513 10.836608,-23.772084 22.474352,-29.585539 2.857918,-1.427632 4.419482,-2.035083 7.509763,-2.921312 12.017316,-3.446334 25.059678,-1.697813 35.464744,4.75457 3.107867,1.927253 4.146449,2.795833 12.299082,10.285955 l 4.82324,4.431276 5.16618,-4.753529 c 8.82359,-8.118791 10.74816,-9.586778 15.79618,-12.048721 6.17258,-3.01039 12.26112,-4.365307 19.49265,-4.337802 11.93802,0.04538 22.37401,4.309486 30.54503,12.480489 12.53242,12.532419 15.72124,30.970084 8.02875,46.421944 -2.89087,5.80687 -5.4004,8.83104 -13.53822,16.314498 -6.02469,5.54023 -15.61723,14.34455 -38.17415,35.03732 -6.12414,5.61802 -14.73434,13.52131 -19.13377,17.56286 -4.39943,4.04154 -8.08085,7.34825 -8.18093,7.34825 -0.10007,0 -10.527523,-9.49442 -23.172137,-21.09872 z m 35.196279,-8.39854 c 30.41965,-28.38263 49.21756,-46.020268 49.70939,-46.641108 1.97889,-2.49803 3.38459,-5.16708 4.42014,-8.39264 1.07479,-3.34782 1.29085,-5.01922 1.27998,-9.901906 -0.0134,-6.015981 -0.66902,-9.21644 -2.66199,-12.994639 -5.50597,-10.437993 -20.80186,-16.070668 -32.13062,-11.832037 -2.02646,0.758198 -5.13439,2.438992 -7.32985,3.964038 -2.30987,1.604527 -1.59765,1.002441 -15.27084,12.909477 l 43.42323,44.080455 -11.03215,10.12586 C 130.3214,99.176252 120.90258,89.742962 104.7587,73.46707 c -17.49333,17.844092 -30.29506,31.0826 -42.122523,42.86565 0,0 -6.067398,-8.52137 -8.888781,-12.21936 C 63.112249,95.225612 82.641042,76.179902 93.619114,63.225246 88.110612,58.19443 81.897459,51.818404 81.363967,51.396706 79.724615,50.100881 77.066489,48.411079 75.153307,47.448544 71.531629,45.62645 68.003339,44.740426 64.369166,44.740426 c -10.102716,0 -19.829895,5.288976 -24.227057,13.173017 -0.844651,1.51444 -1.768572,4.230216 -2.235457,6.570904 -0.459479,2.303562 -0.531106,10.394235 -0.112187,12.671795 0.766643,4.168 2.757053,8.71132 5.126971,11.70286 0.934227,1.17927 10.583972,10.317 31.640879,29.962008 16.663189,15.54589 30.358625,28.24375 30.434295,28.21745 0.0756,-0.0263 5.46621,-5.01963 11.97897,-11.09627 z"
       id="path68"
       sodipodi:nodetypes="cscscscsscsssssssssccssssssssccccccssssssssss" />
  </g>
</svg>
